<svg xmlns="http://www.w3.org/2000/svg" width="24" height="24" fill="none"><path stroke="#000" stroke-linecap="round" stroke-linejoin="round" stroke-width="1.5" d="M2.75 13.5v-7c0-.966.784-1.75 1.75-1.75h15c.966 0 1.75.784 1.75 1.75v7a1.75 1.75 0 0 1-1.75 1.75h-15a1.75 1.75 0 0 1-1.75-1.75"/><path stroke="#000" stroke-linecap="round" stroke-width="1.5" d="m5 20 1.667-1.6M19 20l-1.667-1.6m-10.666 0 .833-.8.76-.81a2.5 2.5 0 0 1 1.823-.79h3.834a2.5 2.5 0 0 1 1.824.79l.759.81.833.8m-10.666 0h10.666"/><path stroke="#E7F900" stroke-linecap="round" stroke-linejoin="round" stroke-width="1.5" d="m6 13 2.695-2.76a1.824 1.824 0 0 1 2.61 0v0c.806.826 2.163.7 2.935-.157A16.2 16.2 0 0 1 18 7"/></svg>