<svg xmlns="http://www.w3.org/2000/svg" width="24" height="24" fill="none"><g filter="url(#a)"><path stroke="#000" stroke-width="1.5" d="M13.36 6.883h6.14c.966 0 1.75.784 1.75 1.75V17.5a1.75 1.75 0 0 1-1.75 1.75h-15a1.75 1.75 0 0 1-1.75-1.75v-8A.25.25 0 0 1 3 9.25h5.536a3.25 3.25 0 0 0 1.949-.65l1.825-1.367a1.75 1.75 0 0 1 1.05-.35Z" shape-rendering="crispEdges"/></g><path fill="#E7F900" stroke="#000" stroke-width="1.5" d="M4.5 4.75h4.667c.378 0 .747.123 1.05.35L12.75 7l-2.533 1.9a1.75 1.75 0 0 1-1.05.35H2.75V6.5c0-.966.784-1.75 1.75-1.75Z"/><defs><filter id="a" width="28" height="21.867" x="-2" y="6.133" color-interpolation-filters="sRGB" filterUnits="userSpaceOnUse"><feFlood flood-opacity="0" result="BackgroundImageFix"/><feColorMatrix in="SourceAlpha" result="hardAlpha" values="0 0 0 0 0 0 0 0 0 0 0 0 0 0 0 0 0 0 127 0"/><feOffset dy="4"/><feGaussianBlur stdDeviation="2"/><feComposite in2="hardAlpha" operator="out"/><feColorMatrix values="0 0 0 0 0 0 0 0 0 0 0 0 0 0 0 0 0 0 0.25 0"/><feBlend in2="BackgroundImageFix" result="effect1_dropShadow_5_26"/><feBlend in="SourceGraphic" in2="effect1_dropShadow_5_26" result="shape"/></filter></defs></svg>